<svg width="16" height="16" viewBox="0 0 16 16" fill="none" xmlns="http://www.w3.org/2000/svg">
<path d="M15.5112 6.34321C14.9096 5.35806 14.1507 4.47807 13.2647 3.73818L15.1307 1.8722C15.2521 1.74651 15.3193 1.57818 15.3177 1.40344C15.3162 1.22871 15.2461 1.06156 15.1226 0.938003C14.999 0.814443 14.8319 0.744357 14.6571 0.742838C14.4824 0.74132 14.3141 0.808491 14.1884 0.929885L12.1591 2.9618C10.9012 2.21462 9.46307 1.8252 8 1.83555C3.8742 1.83555 1.52307 4.65984 0.488783 6.34321C0.169253 6.86002 0 7.45563 0 8.06324C0 8.67086 0.169253 9.26646 0.488783 9.78327C1.0904 10.7684 1.84927 11.6484 2.73528 12.3883L0.869308 14.2543C0.805659 14.3158 0.754889 14.3893 0.719963 14.4706C0.685037 14.5519 0.666653 14.6394 0.665884 14.7278C0.665115 14.8163 0.681976 14.9041 0.715484 14.986C0.748993 15.0679 0.798476 15.1423 0.861048 15.2049C0.92362 15.2674 0.998027 15.3169 1.07993 15.3504C1.16183 15.3839 1.24958 15.4008 1.33807 15.4C1.42656 15.3993 1.514 15.3809 1.59531 15.3459C1.67661 15.311 1.75015 15.2602 1.81163 15.1966L3.84554 13.1627C5.10192 13.9097 6.53832 14.2998 8 14.2909C12.1258 14.2909 14.4769 11.4666 15.5112 9.78327C15.8307 9.26646 16 8.67086 16 8.06324C16 7.45563 15.8307 6.86002 15.5112 6.34321ZM1.62436 9.08553C1.43452 8.77834 1.33397 8.42436 1.33397 8.06324C1.33397 7.70213 1.43452 7.34814 1.62436 7.04095C2.51337 5.59749 4.52262 3.16839 8 3.16839C9.10644 3.16219 10.1973 3.42885 11.1762 3.94477L9.83465 5.28627C9.19485 4.8615 8.42778 4.67116 7.66361 4.74757C6.89945 4.82397 6.18525 5.16241 5.64221 5.70545C5.09917 6.24849 4.76073 6.96269 4.68433 7.72685C4.60792 8.49102 4.79825 9.25809 5.22303 9.89789L3.6836 11.4373C2.8673 10.7774 2.17072 9.98183 1.62436 9.08553ZM9.99926 8.06324C9.99926 8.59348 9.78862 9.102 9.41369 9.47693C9.03876 9.85186 8.53024 10.0625 8 10.0625C7.70312 10.0614 7.41035 9.993 7.14365 9.86257L9.79933 7.20689C9.92976 7.47359 9.99811 7.76636 9.99926 8.06324ZM6.00074 8.06324C6.00074 7.53301 6.21138 7.02449 6.58631 6.64955C6.96124 6.27462 7.46976 6.06398 8 6.06398C8.29688 6.06513 8.58965 6.13348 8.85635 6.26391L6.20067 8.91959C6.07024 8.65289 6.00189 8.36012 6.00074 8.06324ZM14.3756 9.08553C13.4866 10.529 11.4774 12.9581 8 12.9581C6.89356 12.9643 5.80266 12.6976 4.82384 12.1817L6.16535 10.8402C6.80515 11.265 7.57222 11.4553 8.33639 11.3789C9.10055 11.3025 9.81475 10.9641 10.3578 10.421C10.9008 9.87799 11.2393 9.16379 11.3157 8.39963C11.3921 7.63546 11.2017 6.8684 10.777 6.22859L12.3164 4.68916C13.1327 5.3491 13.8293 6.14465 14.3756 7.04095C14.5655 7.34814 14.666 7.70213 14.666 8.06324C14.666 8.42436 14.5655 8.77834 14.3756 9.08553Z" fill="#4B5563"/>
</svg>
